<svg xmlns="http://www.w3.org/2000/svg" width="256" height="256"><path fill-opacity=".125" d="M0 128.004v128.004l128.25-.254 128.25-.254.254-127.75L257.008 0H0v128.004m.485.496c0 70.4.119 99.053.265 63.672.146-35.38.146-92.98 0-128C.604 29.153.485 58.1.485 128.5" fill="#1976D2" fill-rule="evenodd"/><path fill-opacity=".184" d="M7.5 4.282C-.572 8.819.003-.621.002 127.282 0 250.618-.262 244.728 5.452 250l2.709 2.5 117.578.262 117.579.262 4.355-2.108c2.913-1.41 5.179-3.513 6.841-6.35l2.486-4.242-.015-114.412C256.975 51.677 256.629 12.027 256 13c-.838 1.296-.971 1.273-.985-.173-.023-2.511-4.984-7.916-8.686-9.463-2.694-1.126-23.493-1.361-119.047-1.348L11.5 2.033l-4 2.249M.483 127.5c0 63.25.12 88.978.267 57.173.146-31.805.146-83.555 0-115C.603 38.228.483 64.25.483 127.5M122.185 21.864c-.723.459-2.357.635-3.632.391s-2.623.049-2.995.651c-.372.602-1.719 1.094-2.995 1.094-1.275 0-2.878.675-3.563 1.5s-2.074 1.5-3.087 1.5c-1.014 0-2.324.9-2.913 2s-1.955 2-3.035 2C98.69 31 98 31.678 98 32.933c0 1.063-.9 2.218-2 2.567-1.1.349-2 1.435-2 2.412 0 .978-.906 2.598-2.014 3.601-1.157 1.047-1.786 2.542-1.478 3.514.296.93-.158 2.268-1.008 2.973-.881.731-1.297 2.065-.967 3.103.318 1.002.072 2.767-.547 3.923-.835 1.561-.832 2.455.014 3.474.773.932.825 1.959.16 3.2-.682 1.275-.584 2.368.325 3.611.717.98 1.095 2.58.84 3.555-.255.976.242 2.36 1.105 3.076.864.717 1.57 2.325 1.57 3.573 0 1.249.682 2.533 1.515 2.852.833.32 1.947 1.718 2.475 3.107.528 1.389 1.616 2.526 2.418 2.526.801 0 1.743.9 2.092 2s1.489 2 2.532 2c1.044 0 2.379.9 2.968 2 .603 1.126 2.094 2 3.413 2 1.288 0 2.864.629 3.501 1.397.638.768 2.045 1.165 3.128.882 1.083-.283 2.618.024 3.411.682.999.829 1.988.891 3.219.203 1.135-.636 2.417-.652 3.552-.044 1.159.62 2.483.572 3.814-.14 1.121-.6 2.857-.831 3.859-.513 1.031.328 2.368-.082 3.084-.944.695-.838 2.123-1.523 3.173-1.523 1.05 0 2.152-.634 2.45-1.41.297-.775 1.62-1.68 2.939-2.012 1.32-.331 2.878-1.496 3.463-2.59.586-1.093 1.68-1.988 2.431-1.988.752 0 1.838-1.35 2.413-3 .575-1.65 1.519-3 2.098-3S157 76.93 157 75.622c0-1.307.692-2.951 1.537-3.653.845-.701 1.419-1.994 1.275-2.872-.144-.878.169-2.272.696-3.097 1.27-1.987 1.582-10.826.408-11.552-.508-.314-.66-1.619-.339-2.9.322-1.281.099-2.63-.496-2.998-.595-.367-1.081-1.991-1.081-3.609 0-1.618-.461-2.941-1.025-2.941-.563 0-1.485-1.21-2.047-2.689s-1.901-3.304-2.975-4.056c-1.074-.753-1.953-2.018-1.953-2.812S150.329 31 149.508 31c-.82 0-2.053-.9-2.74-2-.687-1.1-2.041-2-3.009-2-.967 0-2.546-.788-3.509-1.75-.963-.962-2.689-1.616-3.838-1.452-1.148.164-2.657-.389-3.355-1.229-.881-1.062-1.784-1.25-2.966-.618-1.021.547-2.275.545-3.145-.005-1.794-1.135-3.065-1.157-4.761-.082m-1.705 5.144c1.279 4.148 1.864 4.147 2.887-.008.338-1.375.35-1.919.027-1.208-.479 1.052-.876 1.053-2.135.008-1.349-1.119-1.449-.964-.779 1.208m5.98.117c-.408 1.286-.18 2.43.578 2.899 1.681 1.038-1.449 1.636-5.882 1.123-2.908-.337-3.284-.698-2.888-2.767.34-1.781.009-2.38-1.313-2.38-1.266 0-1.622.559-1.253 1.967.709 2.713 2.279 3.807 5.798 4.044 4.581.307 10.149-.108 8.8-.657-.824-.334-.922-1.218-.314-2.818.488-1.282.615-2.602.283-2.933-1.27-1.271-3.162-.515-3.809 1.522m5.195-.318c-1.201 1.861.103 6.193 1.864 6.193.815 0 2.337.856 3.382 1.901 1.046 1.046 2.846 2.201 4.001 2.568 2.354.747 7.081 6.465 7.13 8.625.017.773.692 2.28 1.5 3.347.807 1.068 1.504 2.868 1.547 4 .043 1.133.284 1.562.535.954.258-.625 1.635-.87 3.171-.565l2.715.539-2.495.609c-1.372.335-2.632 1.323-2.8 2.194-.361 1.877 2.554 5.095 3.876 4.278.505-.312.919-.091.919.491S156.1 63 155 63s-2 .45-2 1 1.029 1 2.287 1c1.824 0 2.334-.608 2.516-3 .198-2.599-.108-3-2.287-3-1.384 0-2.516-.459-2.516-1.02 0-.56 1.135-.813 2.522-.562 2.382.432 2.496.253 2.071-3.23a327.652 327.652 0 0 1-.522-4.438c-.113-1.189-3.55-.871-4.871.45-.933.933-1.2.835-1.2-.441 0-.903.45-1.919 1-2.259.55-.34 1-1.068 1-1.618s-.45-.722-1-.382c-.55.34-1 .141-1-.441 0-1.483 2.725-1.327 3.338.191.296.735.537.516.583-.531.11-2.475-2.924-3.435-4.414-1.397-.663.906-1.501 1.35-1.864.988-.362-.363.582-1.478 2.099-2.478 1.517-1 2.196-1.822 1.508-1.825-.687-.004-1.25-.709-1.25-1.566 0-.857-.45-1.281-1-.941-.55.34-1 1.465-1 2.5s-.42 2.142-.934 2.459c-1.034.64-.788-4.071.269-5.127 1.931-1.931.3-2.338-1.73-.431-1.532 1.439-2.633 1.862-3.059 1.174-.365-.591-.011-1.075.788-1.075 1.96 0 3.055-3.136 1.45-4.155-1.717-1.089-2.541-1.047-3.294.171-.999 1.617-2.63.001-2.001-1.982.927-2.919-2.582-3.562-4.63-.848-.947 1.256-2.053 1.953-2.457 1.549-.405-.404-.263-.735.315-.735.577 0 1.305-1.012 1.617-2.25.53-2.104.477-2.131-.804-.419-1.297 1.735-1.387 1.709-1.701-.5-.239-1.683-.566-1.968-1.174-1.024m-19.088 2.443c.697 2.233 2.177 3.705 3.754 3.735.452.008.115-.692-.75-1.556-.864-.865-1.571-2.215-1.571-3 0-.786-.48-1.429-1.067-1.429-.649 0-.792.883-.366 2.25m-4.511.183c-.946 1.139-.77 1.853.854 3.477 1.999 1.999 2.002 2.067.133 3.067-2.503 1.339-3.329 1.295-2.448-.132.443-.715.275-.883-.44-.44-1.031.637-1.604-.558-1.273-2.655.181-1.148-1.677-.891-2.436.337-.369.598-.171 1.588.441 2.2 1.9 1.9 1.22 3.12-.747 1.34-1.764-1.597-1.995-1.506-4.5 1.778-3.274 4.292-3.294 5.057-.139 5.239 1.374.08 2.499-.258 2.499-.75S99.55 42 99 42s-1-.73-1-1.622c0-1.341.265-1.403 1.524-.358 2.124 1.763 2.93.577.952-1.401-1.9-1.9-1.231-2.108 1.431-.445 1.805 1.127 1.764 1.389-1.013 6.523-1.592 2.941-2.865 5.9-2.831 6.576.035.675.471.214.968-1.023.498-1.237 1.396-2.25 1.996-2.25.6 0 .797-.476.437-1.059-.89-1.439 4.283-8.726 6.749-9.509 1.092-.346 2.833-1.478 3.87-2.515 1.849-1.849 1.836-1.899-.598-2.51-2.766-.694-3.061-1.431-1.285-3.207.782-.782.824-1.2.122-1.2-.592 0-1.612.645-2.266 1.433m29.568 1.106c-.965 2.514-.681 3.163.498 1.136.584-1.004.851-2.036.593-2.293-.257-.258-.749.263-1.091 1.157m1.817 4.993c2.484 1.879 3.017 1.846 4.687-.282 1.251-1.595 1.213-1.625-.42-.342-1.358 1.066-2.074 1.126-2.95.25-.637-.637-1.631-1.144-2.208-1.126-.578.017-.176.692.891 1.5m-27.499 2.718c-.032.138-1.062 7.225-2.289 15.75l-2.231 15.5 16.932.274c9.312.151 17.027.151 17.146 0 .118-.151-.303-4.324-.936-9.274-1.244-9.734-1.574-10.053-6.648-6.44-1.499 1.067-3.105 1.935-3.57 1.928-.465-.006 1.332-1.436 3.994-3.176 4.38-2.865 4.783-3.445 4.25-6.114-.325-1.621-.59-4.017-.59-5.323 0-1.867-.535-2.375-2.5-2.375-1.833 0-2.5.533-2.5 2 0 1.333-.667 2-2 2s-2-.667-2-2-.667-2-2-2c-1.1 0-2 .45-2 1s-.942 1-2.094 1c-1.209 0-2.301.795-2.586 1.884-.811 3.103-4.32 1.478-4.32-2.001 0-2.216-.462-2.883-2-2.883-1.1 0-2.026.112-2.058.25M93 46.917c0 1.054.563 2.143 1.25 2.421.789.318.645.533-.393.583-1.776.085-3.214 2.692-2.301 4.169C92.319 55.325 96 55.25 96 54c0-.55-1.013-1.052-2.25-1.116-1.852-.095-1.922-.201-.394-.594 2.754-.709 3.483.604 3.819 6.871.167 3.114.623 5.464 1.014 5.222.952-.588-.214-10.565-1.413-12.089-.521-.664-.664-1.667-.316-2.23.759-1.228-1.131-5.064-2.495-5.064-.531 0-.965.862-.965 1.917M149 47c0 .55.45 1 1 1s1-.45 1-1-.45-1-1-1-1 .45-1 1m4.75 4.662c.688.278 1.813.278 2.5 0 .688-.277.125-.504-1.25-.504s-1.937.227-1.25.504m-29.309 4.893c-1.864 1.494-1.852 1.512.309.465 1.237-.6 2.25-1.3 2.25-1.555 0-.765-.519-.544-2.559 1.09M91.015 58.75C91.003 60.487 91.57 61 93.5 61c1.833 0 2.5-.533 2.5-2 0-2.167-1.464-2.676-2.566-.893-.477.771-.944.696-1.544-.25-.628-.991-.864-.75-.875.893m25.235-.53c-1.237.597-2.25 1.477-2.25 1.956 0 .478 1.125.133 2.5-.768 3.668-2.403 3.539-3.015-.25-1.188m-92.216 8.255c-4.657 3.478-8.579 6.706-8.717 7.174-.316 1.077 107.776 79.894 109.341 79.728 1.353-.145 111.269-78.599 111.313-79.452.025-.497-13.951-10.959-17.684-13.237-.905-.552-15.976 9.735-47.246 32.25-25.255 18.184-46.17 33.062-46.48 33.062-.309 0-20.7-14.845-45.312-32.989C54.637 74.866 34.05 60.05 33.5 60.086c-.55.036-4.81 2.911-9.466 6.389m126.702-4.877c-.329.329-.369 1.196-.088 1.927.709 1.847-3.206 10.368-5.097 11.094-.853.327-1.551 1.215-1.551 1.974 0 1.55-7.204 6.648-9.808 6.94-.931.104-2.367.441-3.192.749-.825.308-2.175.785-3 1.06-.954.318-.703.529.691.579 1.205.043 2.457-.351 2.782-.877.325-.526 1.177-.732 1.894-.457.716.275 3.627-1.064 6.468-2.976s5.172-2.944 5.18-2.293c.009.698.402.571.959-.31.751-1.188 1.196-1.238 2.184-.25 2.07 2.07 3.284 1.388 1.345-.754-1.378-1.524-2.126-1.732-3.155-.878-.881.732-1.348.759-1.348.08 0-1.562 2.205-2.028 4.889-1.034 2.791 1.033 3.99.307 2.294-1.389-1.769-1.769-1.428-2.995.65-2.336 1.315.417 2.166-.15 3.013-2.008 1.385-3.041.786-4.439-1.905-4.439-1.71 0-2.48-1.589-2.059-4.25.142-.903-.332-.966-1.146-.152M91 63.441c0 .793.481 1.738 1.068 2.101.588.363.827 1.29.532 2.059-.345.898.147 1.399 1.372 1.399 2.591 0 3.104-1.134 2.071-4.586-.479-1.603-.91-2.126-.957-1.164-.047.963-.809 1.75-1.693 1.75-1.018 0-1.396-.55-1.031-1.5.316-.825.139-1.5-.393-1.5-.533 0-.969.648-.969 1.441m28 .392c0 .642-1.098 1.167-2.441 1.167-1.343 0-2.669.369-2.947.819-.279.451.825.624 2.453.385 2.979-.437 4.648-1.824 3.535-2.937-.33-.33-.6-.075-.6.566m10.541 1.233c.239.387 1.766.899 3.394 1.138 1.628.239 2.764.117 2.524-.27-.239-.387-1.766-.899-3.394-1.138-1.628-.239-2.764-.117-2.524.27M98.082 66.5c-.006.55.632 2.125 1.418 3.5 1.927 3.371 1.848 4-.5 4-1.1 0-2.007.563-2.015 1.25-.011.836-.327.758-.957-.238-.692-1.095-.357-1.813 1.266-2.715 1.213-.674 1.981-1.277 1.706-1.338-3.09-.692-4.002-.606-4.015.379-.009.657-.437.51-.985-.338-1.651-2.555-1.014.317.843 3.8l1.76 3.3 2.546-2.003c1.922-1.511 2.828-1.72 3.698-.85 1.729 1.729 1.389 3.193-.397 1.711-1.281-1.062-1.84-.997-3.214.378-1.553 1.552-1.543 1.782.139 3.414 1.72 1.669 1.872 1.65 3.268-.397l1.464-2.146 5.07 3.412c2.788 1.877 5.577 3.334 6.196 3.239.62-.095 1.882.158 2.804.563.923.406 2.723.538 4 .294 1.769-.337 1.547-.475-.927-.579-1.787-.075-3.25-.616-3.25-1.203 0-.587-.817-.809-1.815-.492-2.406.764-11.491-5.201-10.773-7.073.296-.77-.109-1.368-.924-1.368-.797 0-2.562-2.138-3.922-4.75-1.36-2.612-2.478-4.3-2.484-3.75m52.696 1.241c-.423 1.616-.043 2.357 1.45 2.831 1.206.383 2.348.114 2.831-.667 1.05-1.699.113-3.185-1.596-2.529-.733.281-1.509-.014-1.723-.656-.214-.643-.647-.183-.962 1.021m-41.469 4.895c-.827 2.156.95 4.864 3.191 4.864 2.241 0 4.018-2.708 3.191-4.864-.821-2.139-5.561-2.139-6.382 0m8.296-.05c-.334.872-.216 2.286.263 3.142.479.856.652 2.392.385 3.414-.268 1.022.016 1.858.63 1.858.615 0 1.117-.675 1.117-1.5s.45-1.5 1-1.5.888.506.75 1.125.297 1.326.965 1.572c.816.299 1.145-.581 1-2.674-.167-2.428-.604-3.02-1.965-2.665-1.053.273-1.75-.105-1.75-.952 0-.773.927-1.406 2.059-1.406 1.132 0 1.781-.45 1.441-1-.979-1.584-5.224-1.162-5.895.586m8.225 2.404c-.216 2.256-.047 4.643.374 5.306.522.821.77.648.781-.546.008-.963.465-1.75 1.015-1.75.55 0 1 .675 1 1.5s.48 1.5 1.067 1.5c.613 0 .797-.853.433-2-.373-1.174-.18-2 .467-2 .623 0 .944-1.195.739-2.75-.275-2.085-.982-2.824-2.924-3.056-2.331-.278-2.597.064-2.952 3.796m7.615-1.816c-.707 2.228 1.892 5.214 3.943 4.53 1.68-.56 2.955-3.367 2.303-5.068-.949-2.471-5.413-2.086-6.246.538m15.193-.674c-.316.825-.139 1.5.393 1.5.533 0 .969-.675.969-1.5s-.177-1.5-.393-1.5c-.216 0-.652.675-.969 1.5m-36.559 2.083c.048 1.165.285 1.402.604.605.289-.722.253-1.585-.079-1.917-.332-.332-.568.258-.525 1.312M136 74.559c0 .857.45 1.281 1 .941.55-.34 1-1.041 1-1.559s-.45-.941-1-.941-1 .702-1 1.559M99.5 79c-.34.55.084 1 .941 1S102 79.55 102 79s-.423-1-.941-1-1.219.45-1.559 1m4.5 5.5c0 .825.675 1.5 1.5 1.5s1.5-.675 1.5-1.5-.675-1.5-1.5-1.5-1.5.675-1.5 1.5m38.543-.569c-.74 1.197 1.141 2.382 2.473 1.559 1.119-.691.384-2.49-1.016-2.49-.485 0-1.141.419-1.457.931m-33.936 1.651C107.612 88.175 107.9 89 109.8 89c.99 0 2.34.54 3 1.2.933.933 1.467.933 2.4 0 .933-.933.924-1.476-.042-2.442-.988-.988-1.456-.938-2.294.25-.903 1.28-.979 1.261-.536-.136.492-1.555-.956-3.872-2.421-3.872-.381 0-.966.712-1.3 1.582m29.567.248c-1.595.225-2.146.802-1.75 1.831.317.827.576 1.691.576 1.921 0 .23.436.418.969.418.532 0 .721-.787.418-1.75-.506-1.609-.431-1.605.935.06 1.617 1.97 2.808 1.104 1.803-1.31-.369-.885-1.579-1.365-2.951-1.17M109.5 87c-.34.55-.141 1 .441 1S111 87.55 111 87s-.198-1-.441-1-.719.45-1.059 1m24.586-.5c.104 1.894 1.77 5.084 1.828 3.5.031-.825-.381-2.175-.914-3-.533-.825-.945-1.05-.914-.5m-3.75 2.067c-.887 2.312 1.324 4.199 2.914 2.486.843-.908.865-1.13.069-.683-1.696.952-2.848-1.421-1.197-2.466 1.043-.661 1.067-.877.097-.889-.705-.008-1.552.69-1.883 1.552M117 90.296c0 1.546.286 1.711 1.383.801 1.067-.885 1.517-.799 1.969.377.824 2.149 2.648 1.901 2.648-.361 0-1.331-.882-2.016-3-2.326-2.458-.361-3-.088-3 1.509m7.177.257c.452 2.172 2.227 2.305 2.633.197.21-1.095-.28-1.75-1.31-1.75-.961 0-1.512.647-1.323 1.553" fill="#1976D2" fill-rule="evenodd"/><path fill-opacity=".665" d="M10.5 3.204C6.167 4.714 2.138 8.845.999 12.943.376 15.188.009 57.83.006 128.538L0 240.576l2.25 4.462c4.342 8.611-5.867 7.959 124.532 7.96 101.484.002 115.723-.182 118.964-1.536 4.75-1.985 7.021-4.089 9.36-8.672 1.825-3.576 1.894-7.794 1.894-116.417 0-61.988-.275-112.431-.612-112.094-.337.336-1.598-1.252-2.803-3.531-1.461-2.763-3.641-4.91-6.545-6.445L242.685 2l-114.592.079C51.13 2.132 12.515 2.501 10.5 3.204M.483 128c0 62.425.12 87.963.267 56.75.147-31.212.147-82.287 0-113.5C.603 40.038.483 65.575.483 128M122.704 21.146c-.959.537-2.597.705-3.64.374-1.043-.331-2.185-.133-2.539.439-.354.573-1.981 1.041-3.615 1.041-1.72 0-3.215.632-3.548 1.5-.317.825-1.667 1.5-3 1.5-1.334 0-2.697.709-3.03 1.577-.333.867-1.668 1.981-2.968 2.475S98 31.585 98 32.36c0 .776-1.125 2.147-2.5 3.048-1.375.901-2.5 2.542-2.5 3.646 0 1.105-.675 2.268-1.5 2.584-.825.317-1.5 1.626-1.5 2.91 0 1.284-.455 2.615-1.011 2.959-.556.343-1.005 1.832-.998 3.309.007 1.476-.147 5.159-.341 8.184-.194 3.025.083 6.06.616 6.745.534.684.733 2.153.442 3.263-.349 1.337.117 2.363 1.382 3.04 1.097.587 1.91 2.085 1.91 3.519 0 1.372.675 2.755 1.5 3.071.825.317 1.5 1.439 1.5 2.494 0 1.107 1.02 2.305 2.414 2.835 1.328.505 2.709 1.844 3.068 2.976.367 1.156 1.513 2.057 2.617 2.057 1.08 0 2.223.675 2.539 1.5.321.837 1.808 1.5 3.362 1.5 1.636 0 3.04.663 3.402 1.606.443 1.153 1.332 1.427 3.153.969 1.395-.35 3.079-.292 3.741.128 1.768 1.122 10.591 1.289 11.256.213.314-.508 1.589-.668 2.833-.355 1.41.353 2.753-.022 3.562-.997.714-.86 2.32-1.564 3.568-1.564 1.249 0 2.53-.675 2.847-1.5.316-.825 1.499-1.5 2.628-1.5 1.219 0 2.515-1.015 3.192-2.5.626-1.375 1.753-2.5 2.503-2.5.751 0 1.797-1.137 2.325-2.526.528-1.389 1.642-2.787 2.475-3.107.833-.319 1.515-1.603 1.515-2.852 0-1.248.629-2.792 1.397-3.429.768-.638 1.165-2.045.882-3.128-.283-1.083.025-2.62.686-3.415.662-.799.902-2.386.535-3.543-.368-1.159-.126-2.745.54-3.548.942-1.135.934-1.779-.035-2.946-.682-.822-1.025-2.619-.763-3.994.273-1.424-.107-2.985-.882-3.628-.748-.621-1.36-2.213-1.36-3.538 0-1.325-.675-2.668-1.5-2.984-.825-.317-1.5-1.623-1.5-2.902 0-1.403-.751-2.563-1.892-2.926-1.041-.33-2.123-1.483-2.405-2.562-.282-1.079-1.343-2.272-2.358-2.651-1.015-.379-2.433-1.506-3.152-2.505-.718-.999-2.126-1.816-3.127-1.816-1.002 0-2.395-.692-3.097-1.537-.701-.845-1.994-1.428-2.872-1.295-.878.133-2.577-.299-3.775-.96-1.197-.66-2.85-.943-3.671-.627-.822.315-2.329.127-3.349-.419-1.21-.648-2.459-.653-3.598-.016m-2.672 4.413c-.018.582.629 1.932 1.436 3 .808 1.067 1.483 1.465 1.5.882.018-.582-.629-1.932-1.436-3-.808-1.067-1.483-1.465-1.5-.882m7.163 1.941c.02 1.65.244 2.204.498 1.231.254-.973.237-2.323-.037-3-.274-.677-.481.119-.461 1.769m-11.109-1c.104 1.894 1.77 5.084 1.828 3.5.031-.825-.381-2.175-.914-3-.533-.825-.945-1.05-.914-.5m13.072 1.5c0 1.375.227 1.938.504 1.25.278-.687.278-1.812 0-2.5-.277-.687-.504-.125-.504 1.25m2.442-.4c-.356.927-.422 1.911-.147 2.186.275.275.791-.259 1.147-1.186.356-.927.422-1.911.147-2.186-.275-.275-.791.259-1.147 1.186m-18.93 1.166c.314 1.246.967 2.51 1.451 2.809 1.368.845 1.035-.984-.571-3.134-1.399-1.873-1.43-1.861-.88.325m23.997-.099c-.367.366-.653 1.379-.637 2.25.025 1.3.221 1.257 1.092-.242 1.077-1.852.765-3.228-.455-2.008M139 31c-.589 1.1-.845 2-.57 2s.981-.9 1.57-2c.589-1.1.845-2 .57-2s-.981.9-1.57 2m-31 .5c0 .825.436 1.5.969 1.5.532 0 .709-.675.393-1.5-.317-.825-.753-1.5-.969-1.5-.216 0-.393.675-.393 1.5m34.98 2.024c-.696.838-1.071 1.718-.835 1.955.237.236.98-.449 1.651-1.524 1.452-2.325.968-2.58-.816-.431m-39.96 2c.696.838 1.471 1.318 1.723 1.067.693-.694-.716-2.591-1.924-2.591-.664 0-.588.574.201 1.524m41.647-.857c-.367.366-.667 1.131-.667 1.7 0 .626.466.567 1.183-.15.651-.651.951-1.416.667-1.7-.284-.284-.817-.217-1.183.15m1.839 2.327c-.999 1.103-1.351 2.006-.783 2.006 1.258 0 3.752-2.858 3.08-3.53-.265-.265-1.299.42-2.297 1.524M101 37.5c.685.825 1.695 1.5 2.245 1.5.558 0 .449-.663-.245-1.5-.685-.825-1.695-1.5-2.245-1.5-.558 0-.449.663.245 1.5m-2 2c.685.825 1.695 1.5 2.245 1.5.558 0 .449-.663-.245-1.5-.685-.825-1.695-1.5-2.245-1.5-.558 0-.449.663.245 1.5m50.015.75c.013 1.819.201 1.963.985.75 1.253-1.939 1.253-3 0-3-.55 0-.993 1.013-.985 2.25M112 39.47c0 1.029-3.091 22.176-3.548 24.28-.407 1.867-.062 2.25 2.029 2.25 1.702 0 2.545-.567 2.598-1.75.047-1.045.282-1.247.583-.5.687 1.702 5.338 1.605 5.338-.111 0-.913.824-1.204 2.5-.884 2.173.416 2.5.121 2.5-2.253 0-2.662-.062-2.691-2.425-1.143-1.773 1.162-2.534 1.265-2.827.386-.287-.862-1.158-.707-3.074.549-1.471.964-2.674 1.303-2.674.755 0-.549 1.32-1.68 2.933-2.514 1.613-.834 3.127-2.533 3.365-3.776.237-1.242.358-.797.268.991-.189 3.739-.216 3.721 2.719 1.802 2.001-1.308 2.183-2.129 1.883-8.5-.291-6.169-.572-7.052-2.25-7.052-1.055 0-1.918.675-1.918 1.5 0 .904-.925 1.5-2.327 1.5-2.016 0-2.268-.4-1.886-3 .37-2.526.106-3-1.674-3-1.162 0-2.113.211-2.113.47M125 47c0 8.278.778 9.583 3.443 5.777 1.521-2.17 1.557-2.174 1.557-.16 0 1.229-1.01 2.522-2.5 3.201-1.864.849-2.5 1.908-2.5 4.161 0 2.556.385 3.021 2.5 3.021 1.375 0 2.5.45 2.5 1 0 1.788 4.826 1.106 5.311-.75.344-1.317.486-1.193.573.5.089 1.722.722 2.25 2.695 2.25 2.273 0 2.519-.328 2.065-2.75-.284-1.513-.797-4.89-1.142-7.505l-.626-4.756-4.508 3.102c-2.48 1.706-4.745 2.865-5.034 2.576-.289-.289 1.755-2.019 4.542-3.846 3.14-2.058 4.921-3.892 4.683-4.821-.211-.825-.669-3.187-1.017-5.25-.698-4.137-3.542-5.342-3.542-1.5 0 1.733-.574 2.25-2.5 2.25-1.926 0-2.5-.517-2.5-2.25 0-1.583-.593-2.25-2-2.25-1.833 0-2 .667-2 8m-27.774-4.426c.95.994 2.001 1.533 2.336 1.197.335-.335-.442-1.148-1.726-1.807-2.233-1.145-2.26-1.118-.61.61m53.803.387c-.809.512-1.211 1.191-.893 1.509.319.318 1.148-.108 1.844-.946 1.443-1.738 1.166-1.902-.951-.563M93 47.972c0 .437.926 1.037 2.057 1.333 1.232.322 1.912.103 1.696-.546-.421-1.264-3.753-1.963-3.753-.787m60.507 2.017c-.35.566.051.734.941.393 1.732-.665 2.049-1.382.611-1.382-.518 0-1.216.445-1.552.989M93 50.393c0 .216.698.661 1.552.989.89.341 1.291.173.941-.393-.587-.951-2.493-1.406-2.493-.596M154.5 53c-1.63.701-1.688.872-.309.93.93.038 1.969-.38 2.309-.93.711-1.15.676-1.15-2 0m-61.767 1.124c.679.684 1.486.991 1.793.683.308-.308-.247-.867-1.233-1.243-1.425-.542-1.54-.428-.56.56M153 55.393c0 .971 2.817 1.336 4.091.53 1.025-.65.66-.897-1.341-.908-1.512-.008-2.75.162-2.75.378M24 66.031c-5.225 3.853-9.615 7.341-9.755 7.752-.14.411.815 1.416 2.123 2.232 1.309.817 26.021 18.752 54.917 39.856 28.896 21.104 52.84 38.369 53.209 38.366.37-.003 25.272-17.627 55.339-39.164C209.9 93.535 235.175 75.496 236 74.985c1.286-.796 1.215-1.136-.5-2.382-1.1-.799-5.656-4.157-10.124-7.461l-8.124-6.008-42.376 30.536c-23.307 16.795-44.186 31.79-46.398 33.324l-4.022 2.788-8.478-6.246c-4.663-3.436-25.036-18.462-45.274-33.391-20.238-14.93-36.888-27.139-37-27.132-.112.006-4.479 3.165-9.704 7.018M92 60c-1.207.78-1.049.972.809.985 1.288.008 2.036-.427 1.691-.985-.743-1.202-.639-1.202-2.5 0m62 0c1.97 1.273 4.287 1.273 3.5 0-.34-.55-1.604-.993-2.809-.985-1.781.013-1.91.197-.691.985m-.5 4c.34.55 1.379.993 2.309.985 1.457-.014 1.484-.15.191-.985-1.958-1.266-3.282-1.266-2.5 0m-60 1c-1.908.82-1.897.863.25.93 1.237.038 2.25-.38 2.25-.93s-.112-.968-.25-.93c-.138.039-1.15.457-2.25.93m59.5 1.393c0 .216.675.652 1.5.969.825.316 1.5.139 1.5-.393 0-.533-.675-.969-1.5-.969s-1.5.177-1.5.393M93 68c-1.333.862-1.333.969 0 .969.825 0 2.175-.436 3-.969 1.333-.862 1.333-.969 0-.969-.825 0-2.175.436-3 .969m15 1c0 .626 6.167 1 16.5 1s16.5-.374 16.5-1-6.167-1-16.5-1-16.5.374-16.5 1m43 1.858c0 1.028 3.029 2.446 3.729 1.747.243-.244-.496-.945-1.643-1.559-1.148-.614-2.086-.699-2.086-.188M94.5 72c-.782 1.266.542 1.266 2.5 0 1.293-.835 1.266-.971-.191-.985-.93-.008-1.969.435-2.309.985m15.605.373c-1.643 1.98-.273 4.627 2.395 4.627 1.257 0 2.567-.732 2.91-1.627.701-1.825-.995-4.373-2.91-4.373-.69 0-1.768.618-2.395 1.373m8.257.127c-1.331 3.469 3.294 6.484 5.204 3.393.461-.745-.011-.887-1.441-.433-1.692.537-2.125.26-2.125-1.361 0-1.399.469-1.856 1.5-1.461.825.317 1.5.078 1.5-.531 0-1.667-3.977-1.33-4.638.393M126 74c0 2.476.407 3 2.333 3 3.038 0 3.479-.535 2.907-3.524-.346-1.81-1.114-2.476-2.857-2.476-1.981 0-2.383.506-2.383 3m8.389-1.57c-.996 2.595.399 4.739 2.857 4.39 1.652-.235 2.254-.987 2.254-2.82 0-1.833-.602-2.585-2.254-2.82-1.353-.192-2.496.308-2.857 1.25M111.5 73c-.399.646-.276 1.624.274 2.174.667.667 1.242.609 1.726-.174.399-.646.276-1.624-.274-2.174-.667-.667-1.242-.609-1.726.174m24.01-.016c-.737 1.193.199 3.016 1.549 3.016 1.217 0 1.225-2.707.01-3.457-.512-.317-1.213-.118-1.559.441m-38.083 2.495c-1.06.801-1.477 1.465-.927 1.474 1.486.024 4.026-1.761 3.398-2.388-.299-.3-1.411.112-2.471.914m51.323.183c.688.278 1.813.278 2.5 0 .688-.277.125-.504-1.25-.504s-1.937.227-1.25.504M98.5 78c-.34.55-.168 1 .382 1s1.278-.45 1.618-1c.34-.55.168-1-.382-1s-1.278.45-1.618 1m49.5.5c.685.825 1.695 1.5 2.245 1.5.558 0 .449-.663-.245-1.5-.685-.825-1.695-1.5-2.245-1.5-.558 0-.449.663.245 1.5m-29.667 1c0 .825.375 1.5.834 1.5.458 0 .833-.675.833-1.5s-.375-1.5-.833-1.5c-.459 0-.834.675-.834 1.5m3.667 0c0 .825.45 1.5 1 1.5s1-.675 1-1.5-.45-1.5-1-1.5-1 .675-1 1.5m4.079.083c.048 1.165.285 1.402.604.605.289-.722.253-1.585-.079-1.917-.332-.332-.568.258-.525 1.312m3 0c.048 1.165.285 1.402.604.605.289-.722.253-1.585-.079-1.917-.332-.332-.568.258-.525 1.312M101.5 80c-.34.55-.141 1 .441 1S103 80.55 103 80s-.198-1-.441-1-.719.45-1.059 1m2.969 4.05c-.95 1.538.351 2.53 1.635 1.246.718-.718.735-1.277.052-1.699-.56-.346-1.319-.142-1.687.453M143 84.5c0 .825.45 1.5 1 1.5s1-.675 1-1.5-.45-1.5-1-1.5-1 .675-1 1.5m-33.397.333c-.283.459.12.834.897.834s1.18-.375.897-.834c-.283-.458-.687-.833-.897-.833-.21 0-.614.375-.897.833m-.589 3.581c.648.648 1.324.648 1.972 0 .647-.647.309-.985-.986-.985s-1.633.338-.986.985m21.445-.347c-1.026 1.66-.105 1.89 1.33.332.71-.769.849-1.399.309-1.399-.539 0-1.277.48-1.639 1.067M113.5 90c.34.55.816 1 1.059 1s.441-.45.441-1-.477-1-1.059-1-.781.45-.441 1m8.064.293c.376.986.935 1.541 1.243 1.233.308-.307.001-1.114-.683-1.793-.988-.98-1.102-.865-.56.56m2.905-.243c-.368.596-.399 1.353-.069 1.683.33.33.607-.037.615-.816.013-1.167.187-1.152.985.083.582.901.975 1.025.985.309.021-1.684-1.716-2.553-2.516-1.259m-96.765 24.055c-3.188 2.265-5.663 4.478-5.5 4.917.399 1.078 101.025 73.248 102.307 73.377 1.314.131 105.367-72.721 104.93-73.466-.183-.312-3.001-2.439-6.261-4.726l-5.928-4.158-45.37 32.101c-24.954 17.655-45.935 32.317-46.624 32.581-1.209.464-7.823-4.217-63.512-44.956-14.164-10.363-26.314-19.054-27-19.314-.685-.261-3.854 1.38-7.042 3.644" fill="#1976D2" fill-rule="evenodd"/><path fill-opacity=".525" d="M170.776 18.54c-13.075 13.966-15.41 16.926-15.008 19.028.262 1.369 1.381 3.123 2.487 3.898 1.314.921 1.827 2.111 1.481 3.435-.293 1.121.104 2.551.89 3.203.813.676 1.161 1.992.814 3.085-.333 1.049-.052 2.574.624 3.389.895 1.077.946 2.104.189 3.766-.684 1.5-.707 2.88-.068 4.022.678 1.211.569 2.225-.356 3.34-.731.881-1.2 2.363-1.042 3.295.158.931-.405 2.267-1.25 2.968-.845.702-1.537 2.33-1.537 3.618 0 1.319-.874 2.81-2 3.413-1.1.589-2 1.924-2 2.968 0 1.043-.877 2.176-1.949 2.516-1.072.34-2.227 1.495-2.567 2.567C149.1 88.259 147.966 89 146.5 89c-1.487 0-2.601.743-3 2-.4 1.26-1.513 2-3.008 2-1.306 0-2.652.45-2.992 1-.34.55-2.076 1-3.859 1s-3.733.492-4.334 1.093c-.751.751-1.681.777-2.975.084-1.252-.67-2.479-.674-3.66-.013-1.254.702-2.243.607-3.363-.323-.873-.724-2.607-1.183-3.853-1.02-1.246.164-2.56-.179-2.92-.762-.359-.582-1.737-1.059-3.06-1.059-1.384 0-2.861-.851-3.479-2.005-.992-1.855-1.514-1.508-6.962 4.63l-5.89 6.634 15.424 11.371c8.483 6.253 15.678 11.37 15.989 11.37.311 0 21.232-14.88 46.49-33.067 29.74-21.414 46.37-32.795 47.189-32.295C222.343 62.15 237 73.31 237 73.925c0 .405-1.912 2.093-4.25 3.751s-27.2 19.43-55.25 39.492c-28.05 20.063-51.514 36.779-52.142 37.147-.641.376-22.343-14.79-49.5-34.593C49.261 100.327 26.15 83.54 24.5 82.416l-3-2.042-3.791 3.58-3.791 3.58 27.012 19.983c14.856 10.991 27.025 20.523 27.041 21.183.016.66-.657 1.585-1.496 2.054-1.152.645 5.011 5.612 25.184 20.3 14.69 10.695 28.147 20.438 29.904 21.65l3.195 2.203 45.354-32.074c24.944-17.641 45.915-32.29 46.601-32.553 1.209-.464 13.199 7.56 13.258 8.873.032.72-102.168 72.602-104.492 73.493-.863.332-9.226-5.036-20.713-13.295a41571.47 41571.47 0 0 0-48.148-34.533l-28.881-20.683-4.327 3.183c-2.379 1.75-4.232 3.483-4.118 3.851.114.368 6.171 5.008 13.458 10.312 7.288 5.303 13.25 9.974 13.25 10.38 0 .407-.532 1.271-1.183 1.922s-.989 1.343-.75 1.538c.238.195 18.511 13.432 40.605 29.415l40.173 29.06 46.208-32.833 46.207-32.834 5.62 4.079c3.091 2.244 5.972 4.389 6.402 4.768.431.379-2.044 2.658-5.5 5.064-3.455 2.406-26.642 18.695-51.527 36.197-24.885 17.502-45.902 32.074-46.705 32.382-.895.344-19.176-12.175-47.255-32.358-25.187-18.105-47.012-33.708-48.498-34.674-2.671-1.734-2.754-1.716-6.769 1.51-2.235 1.797-3.719 3.558-3.296 3.914.422.356 2.004 1.575 3.515 2.709l2.746 2.062-12.496 13.341L1 200.463l.004 21.019c.003 19.069.184 21.314 1.952 24.214 1.072 1.757 3.187 4.007 4.702 5 2.614 1.713 8.65 1.804 119.297 1.804H243.5l4.229-2.26c8.397-4.486 7.737 5.466 8.038-121.244l.266-112.505-2.266-4.487c-3.81-7.543-6.363-8.583-22.928-9.341-7.886-.361-21.143-.657-29.459-.659L186.259 2l-15.483 16.54m-57.963 4.143c.721.289 1.584.253 1.916-.079.332-.332-.258-.568-1.312-.525-1.165.048-1.402.285-.604.604m34.92 6.441c.679.684 1.486.991 1.793.683.308-.308-.247-.867-1.233-1.243-1.425-.542-1.54-.428-.56.56m-9.169 2.583c-.542 1.425-.428 1.54.56.56.684-.679.991-1.486.683-1.793-.308-.308-.867.247-1.243 1.233m4.308 2.043c-1.243 1.586-1.208 1.621.378.378 1.666-1.307 2.195-2.128 1.372-2.128-.207 0-.995.788-1.75 1.75m9.128-.809c0 .518.445 1.216.989 1.552.566.35.734-.051.393-.941-.665-1.732-1.382-2.049-1.382-.611M91.237 39.76c-1.168 2.491-1.14 2.572.366 1.066.896-.896 1.464-2.109 1.263-2.695-.201-.586-.935.147-1.629 1.629m19.467 10.99C108.538 65.615 108.545 66 111 66c1.352 0 2-.667 2-2.059 0-1.132-.45-1.781-1-1.441-.55.34-1 .19-1-.334s.592-1.179 1.317-1.457c.789-.303 1.408-2.447 1.545-5.357.125-2.669.583-7.439 1.016-10.602.679-4.963.565-5.75-.837-5.75-1.31 0-1.956 2.276-3.337 11.75M125 47c0 4.4.395 8 .878 8 2.286 0 3.291-3.162 2.77-8.717-.298-3.181-.566-6.12-.595-6.533-.029-.413-.728-.75-1.553-.75-1.208 0-1.5 1.556-1.5 8m9.299-2.395c.638 6.182 1.195 7.301 2.824 5.672 1.679-1.679.099-11.277-1.857-11.277-1.279 0-1.446.966-.967 5.605m-13.713 5.01c-.38 4.188-.506 7.798-.281 8.023.225.225 1.148.125 2.052-.221 2.198-.844 2.463-15.417.281-15.417-.97 0-1.561 2.193-2.052 7.615m9.414-.107c0 5.292.081 5.459 2.043 4.25 1.356-.835 1.865-1.93 1.514-3.258-.292-1.1-.536-3.013-.543-4.25-.008-1.327-.629-2.25-1.514-2.25-1.152 0-1.5 1.279-1.5 5.508m-41.9-2.213c-1.265 2.107-1.243 2.128.479.479.991-.95 1.587-1.942 1.324-2.205-.263-.263-1.074.514-1.803 1.726m27.536 2.345c-.35 2.551-.636 5.705-.636 7.008 0 2.119.211 2.237 2 1.12 1.624-1.014 2-2.332 2-7.009 0-4.197-.37-5.759-1.364-5.759-.865 0-1.597 1.698-2 4.64m20.681 3.61c-.511.688-.749 3.837-.53 7 .356 5.149.63 5.75 2.612 5.75 2.165 0 2.194-.156 1.267-7-.946-6.989-1.598-8.108-3.349-5.75m-9.567 3.142C124.235 58.301 124.412 63 127 63c1.667 0 2-.667 2-4 0-2.2-.113-3.986-.25-3.968-.137.017-1.037.629-2 1.36m5.208-.389c-1.091.611-1.414 2.012-1.136 4.925.309 3.243.787 4.072 2.344 4.072 1.764 0 1.889-.467 1.267-4.75-.823-5.673-.603-5.294-2.475-4.247m-10.208 3.389C119.406 61.171 119.533 63 122 63c1.467 0 2-.667 2-2.5 0-2.881.052-2.856-2.25-1.108M116 61l-2.5 2.5 2.336.331c2.926.414 3.409-.069 2.995-2.995L118.5 58.5 116 61M95 72c-.825.533-1.05.969-.5.969s1.675-.436 2.5-.969c.825-.533 1.05-.969.5-.969s-1.675.436-2.5.969m15.39.426c-.91 2.371.377 4.765 2.357 4.384 1.107-.213 1.753-1.249 1.753-2.81 0-2.851-3.156-4.059-4.11-1.574m8.762-.541c-2.022 1.282-.951 4.569 1.608 4.935 1.232.175 2.24-.112 2.24-.639s-.787-.896-1.75-.82c-.963.077-1.75-.536-1.75-1.361s.783-1.438 1.739-1.363c.957.075 1.493-.262 1.191-.75-.681-1.101-1.542-1.102-3.278-.002M126 73.93c0 2.619.372 3.07 2.534 3.07 2.186 0 2.484-.378 2.171-2.75-.253-1.911-1.026-2.847-2.534-3.07-1.826-.268-2.171.169-2.171 2.75m8.362-1.43c-.878 2.287.351 4.5 2.5 4.5 2.365 0 3.579-2.763 2.033-4.627-1.505-1.813-3.814-1.748-4.533.127m-22.695.167c-1.218 1.218-.689 3.333.833 3.333.833 0 1.5-.889 1.5-2 0-1.992-1.066-2.601-2.333-1.333M127.71 74c-.307 1.174-.03 2 .669 2 .656 0 1.192-.9 1.192-2s-.301-2-.669-2c-.368 0-.904.9-1.192 2m7.957-1.333c-1.218 1.218-.689 3.333.833 3.333.833 0 1.5-.889 1.5-2 0-1.992-1.066-2.601-2.333-1.333m14.146 3.016c.721.289 1.584.253 1.916-.079.332-.332-.258-.568-1.312-.525-1.165.048-1.402.285-.604.604M93.731 81.08c.354 1.352.807 1.806 1.057 1.057.24-.722-.038-1.787-.62-2.369-.742-.742-.872-.351-.437 1.312M104.5 85c.34.55.816 1 1.059 1s.441-.45.441-1-.477-1-1.059-1-.781.45-.441 1" fill="#1976D2" fill-rule="evenodd"/></svg>