<svg xmlns="http://www.w3.org/2000/svg" viewBox="0 0 225.693 225.693" xmlns:v="https://vecta.io/nano"><path d="M8.427 78.346h208.839c2.391 0 4.596.971 6.211 2.732a8.33 8.33 0 0 1 2.183 6.425l-10.222 117.15c-.383 4.385-3.99 7.692-8.393 7.692H21.4c-4.301 0-7.9-3.224-8.374-7.497L.053 87.698a8.32 8.32 0 0 1 2.097-6.546 8.32 8.32 0 0 1 6.277-2.806zm206.086-15V44.811c0-4.143-2.524-7.465-6.667-7.465h-83.333v-2.341c0-12.219-8.176-21.659-19.25-21.659H30.43c-11.074 0-20.917 9.44-20.917 21.659v24.951c0 1.231.68 2.379 1.267 3.39h203.733z"/></svg>